<?xml version="1.0" ?><svg id="icon" viewBox="0 0 512 512" xmlns="http://www.w3.org/2000/svg" xmlns:xlink="http://www.w3.org/1999/xlink"><defs><style>.cls-1,.cls-2{fill:#daa748;}.cls-1,.cls-5,.cls-6,.cls-7{stroke:#526b77;}.cls-1,.cls-5{stroke-linecap:round;stroke-linejoin:round;}.cls-1,.cls-5,.cls-6{stroke-width:10px;}.cls-3{clip-path:url(#clip-path);}.cls-4{fill:#36464d;}.cls-5,.cls-6{fill:none;}.cls-6,.cls-7{stroke-miterlimit:10;}.cls-7{fill:#f7e6b2;stroke-width:5px;}.cls-8{fill:#e2e155;}.cls-9{fill:#526b77;}</style><clipPath id="clip-path"><polygon class="cls-1" data-name="&lt;Caminho de recorte&gt;" id="_Caminho_de_recorte_" points="349.22 447.69 256 391.87 162.78 447.69 162.78 310.74 349.22 310.74 349.22 447.69"/></clipPath></defs><title/><polygon class="cls-2" data-name="&lt;Caminho de recorte&gt;" id="_Caminho_de_recorte_2" points="349.22 447.69 256 391.87 162.78 447.69 162.78 310.74 349.22 310.74 349.22 447.69"/><g class="cls-3"><polygon class="cls-4" points="198.19 310.74 162.78 310.74 162.78 459.57 198.19 436.52 198.19 310.74"/><polygon class="cls-4" points="256 398.9 273.71 410.43 273.71 310.74 238.29 310.74 238.29 410.43 256 398.9"/><polygon class="cls-4" points="313.81 310.74 313.81 436.52 349.22 459.57 349.22 310.74 313.81 310.74"/></g><polygon class="cls-5" data-name="&lt;Caminho de recorte&gt;" id="_Caminho_de_recorte_3" points="349.22 447.69 256 391.87 162.78 447.69 162.78 310.74 349.22 310.74 349.22 447.69"/><path class="cls-2" d="M409.68,216.1c0,15.35-24.64,26.62-29.14,40.47-4.66,14.36,8.49,37.93-.21,49.88S345,313.25,332.95,322s-15.09,35.61-29.45,40.27C289.65,366.8,271.35,347,256,347s-33.65,19.78-47.5,15.28c-14.36-4.66-17.5-31.57-29.45-40.27s-38.61-3.51-47.39-15.58,4.45-35.52-.21-49.87c-4.5-13.85-29.14-25.12-29.14-40.47s24.64-26.62,29.14-40.47c4.66-14.36-8.49-37.93.21-49.88S167,119,179.05,110.17,194.14,74.56,208.5,69.9c13.85-4.5,32.15,15.28,47.5,15.28S289.65,65.4,303.5,69.9c14.36,4.66,17.5,31.57,29.45,40.27s38.61,3.51,47.39,15.58-4.45,35.52.21,49.87C385,189.48,409.68,200.75,409.68,216.1Z"/><path class="cls-6" d="M409.68,216.1c0,15.35-24.64,26.62-29.14,40.47-4.66,14.36,8.49,37.93-.21,49.88S345,313.25,332.95,322s-15.09,35.61-29.45,40.27C289.65,366.8,271.35,347,256,347s-33.65,19.78-47.5,15.28c-14.36-4.66-17.5-31.57-29.45-40.27s-38.61-3.51-47.39-15.58,4.45-35.52-.21-49.87c-4.5-13.85-29.14-25.12-29.14-40.47s24.64-26.62,29.14-40.47c4.66-14.36-8.49-37.93.21-49.88S167,119,179.05,110.17,194.14,74.56,208.5,69.9c13.85-4.5,32.15,15.28,47.5,15.28S289.65,65.4,303.5,69.9c14.36,4.66,17.5,31.57,29.45,40.27s38.61,3.51,47.39,15.58-4.45,35.52.21,49.87C385,189.48,409.68,200.75,409.68,216.1Z"/><circle class="cls-7" cx="256" cy="216.1" r="96.95"/><path class="cls-8" d="M225.42,265.66a2.5,2.5,0,0,1-2.38-3.27l11.12-34.22L205,207a2.5,2.5,0,0,1,1.47-4.52h36l11.12-34.22a2.5,2.5,0,0,1,4.76,0l11.12,34.22h36A2.5,2.5,0,0,1,307,207l-29.11,21.15L289,262.39a2.5,2.5,0,0,1-3.85,2.79L256,244l-29.11,21.15A2.5,2.5,0,0,1,225.42,265.66Z"/><path class="cls-9" d="M256,169l11.68,36h37.8L274.9,227.21l11.68,36L256,240.94l-30.58,22.22,11.68-36L206.52,205h37.8L256,169m49.48,36h0M256,164a5,5,0,0,0-4.76,3.45L240.69,200H206.52a5,5,0,0,0-2.94,9l27.64,20.08-10.56,32.5a5,5,0,0,0,7.69,5.59L256,247.12l27.64,20.08a5,5,0,0,0,7.69-5.59l-10.56-32.5,27.57-20a5,5,0,0,0-2.86-9.1H271.31l-10.56-32.5A5,5,0,0,0,256,164Z"/></svg>